<?xml version="1.0" standalone="no"?>
<!DOCTYPE svg PUBLIC "-//W3C//DTD SVG 20010904//EN"
 "http://www.w3.org/TR/2001/REC-SVG-20010904/DTD/svg10.dtd">
<svg version="1.0" xmlns="http://www.w3.org/2000/svg"
 width="1280.000000pt" height="1280.000000pt" viewBox="0 0 1280.000000 1280.000000"
 preserveAspectRatio="xMidYMid meet">

<g transform="translate(0.000000,1280.000000) scale(0.100000,-0.100000)"
fill="#000000" stroke="none">
<path d="M4050 7135 c-13 -14 -19 -25 -14 -25 8 1 50 50 41 50 -2 0 -14 -11
-27 -25z"/>
<path d="M4065 7110 c-3 -5 -2 -17 3 -26 6 -11 11 -13 16 -5 4 6 2 11 -4 11
-7 0 -10 7 -6 15 6 17 0 20 -9 5z"/>
<path d="M4100 7070 c0 -5 9 -10 21 -10 11 0 17 5 14 10 -3 6 -13 10 -21 10
-8 0 -14 -4 -14 -10z"/>
<path d="M3979 7053 c-13 -16 -12 -17 4 -4 16 13 21 21 13 21 -2 0 -10 -8 -17
-17z"/>
<path d="M4075 7040 c3 -5 8 -10 11 -10 2 0 4 5 4 10 0 6 -5 10 -11 10 -5 0
-7 -4 -4 -10z"/>
<path d="M4070 7002 c0 -10 41 -45 46 -39 2 2 -7 13 -21 25 -14 12 -25 18 -25
14z"/>
<path d="M4168 6953 c7 -3 16 -2 19 1 4 3 -2 6 -13 5 -11 0 -14 -3 -6 -6z"/>
<path d="M3886 6888 c3 -5 10 -6 15 -3 13 9 11 12 -6 12 -8 0 -12 -4 -9 -9z"/>
<path d="M4536 6863 c-4 -5 -13 -8 -19 -8 -7 0 -12 -12 -12 -27 -1 -38 20 -33
23 5 0 5 9 15 19 23 10 7 13 14 7 14 -6 0 -14 -3 -18 -7z"/>
<path d="M3827 6853 c-42 -69 -107 -211 -107 -234 0 -17 -4 -28 -9 -25 -5 4
-7 -4 -3 -16 3 -14 1 -19 -6 -14 -8 5 -10 1 -6 -9 13 -34 34 10 35 75 0 23 1
23 8 5 5 -11 5 -27 1 -35 -5 -9 -4 -23 1 -32 11 -21 -13 -42 -39 -34 -20 7
-28 -13 -78 -204 -62 -231 33 -758 174 -962 97 -141 261 -237 459 -268 70 -12
98 -11 200 3 192 26 214 28 303 17 79 -10 108 -17 185 -43 210 -71 387 -232
498 -452 41 -82 75 -212 92 -350 19 -154 35 -215 82 -311 44 -91 108 -172 181
-229 50 -40 152 -98 159 -91 2 2 -8 30 -21 62 -43 105 -60 214 -53 344 7 120
17 169 61 284 15 39 24 76 22 83 -3 7 -1 12 4 10 5 -1 29 28 53 65 25 38 41
68 36 68 -5 0 -9 -4 -9 -9 0 -6 -9 -9 -20 -8 -11 1 -20 5 -20 10 0 5 7 6 15 3
9 -3 18 1 21 9 4 8 11 15 18 15 6 0 38 26 69 58 61 62 63 80 6 80 -25 0 -26
-1 -10 -20 14 -16 16 -17 19 -3 2 9 8 15 14 13 17 -6 11 -23 -12 -34 -12 -7
-31 -25 -41 -40 -10 -16 -19 -24 -19 -18 0 5 5 15 12 22 6 6 8 15 3 19 -4 5
-10 2 -12 -4 -5 -15 -33 -17 -33 -3 0 6 6 10 14 10 8 0 13 9 12 23 -1 26 -39
35 -62 16 -10 -8 -18 -7 -29 5 -9 9 -27 16 -41 16 -29 0 -30 7 -4 40 26 33 25
40 -5 40 -15 0 -25 6 -25 14 0 9 -15 15 -46 18 -37 3 -49 -1 -58 -14 -14 -22
-22 -23 -30 -1 -4 10 2 25 14 38 l20 22 -22 29 c-12 16 -30 35 -40 42 -18 13
-25 42 -10 42 13 0 68 -53 77 -75 8 -18 9 -17 13 9 2 18 -3 35 -17 50 -11 11
-20 26 -20 31 0 6 -19 15 -43 21 -33 9 -43 16 -41 30 1 10 -5 23 -13 27 -8 4
-14 15 -14 22 0 8 -7 15 -15 15 -8 0 -15 6 -15 13 0 8 -18 22 -40 32 -24 11
-36 21 -30 25 8 5 6 9 -5 14 -9 3 -20 4 -25 1 -4 -2 -15 4 -25 15 -10 11 -25
20 -34 20 -14 1 -13 2 2 11 21 12 22 29 2 29 -8 0 -15 7 -15 15 0 8 -6 16 -12
16 -7 1 -23 3 -36 4 -13 1 -28 7 -33 12 -9 9 -12 17 -18 53 -1 3 -5 -2 -11
-10 -14 -22 -23 -5 -10 19 9 17 8 25 -5 37 -8 8 -15 24 -15 35 0 10 -4 19 -9
19 -6 0 -16 12 -23 27 -14 30 -45 47 -35 19 11 -27 -3 -46 -34 -46 -16 0 -29
5 -29 10 0 6 -9 10 -20 10 -11 0 -20 5 -20 10 0 6 -11 10 -24 10 -20 0 -25 6
-29 33 -3 22 -4 15 -5 -21 l-2 -53 -46 36 c-26 19 -51 35 -57 35 -6 0 -7 3 -4
7 4 3 -2 12 -13 20 -22 16 -27 43 -7 43 8 0 7 4 -3 10 -10 7 -11 10 -2 10 7 0
20 -5 30 -11 14 -9 26 -9 48 0 l29 11 -32 -3 c-18 -2 -34 0 -35 3 -2 4 -17 10
-35 13 -28 5 -31 4 -28 -14 2 -11 0 -17 -6 -14 -5 4 -7 10 -4 15 7 11 -13 24
-70 44 -27 10 -69 29 -92 42 -46 24 -52 24 -27 0 14 -15 14 -16 -3 -16 -14 0
-15 -2 -5 -9 11 -7 11 -9 -2 -14 -8 -3 -16 -1 -18 5 -6 18 -48 17 -48 -1 0
-13 -2 -14 -9 -2 -5 8 -7 20 -4 28 3 7 0 13 -6 13 -6 0 -11 -4 -11 -10 0 -5
-4 -10 -10 -10 -5 0 -10 12 -10 26 0 16 -5 24 -12 22 -7 -3 -21 6 -32 19 -10
13 -24 22 -32 19 -7 -3 -16 -1 -20 5 -3 6 -12 8 -20 5 -8 -3 -11 0 -7 10 4 11
8 12 19 3 8 -7 17 -9 20 -6 3 3 -3 11 -14 18 -14 9 -18 18 -12 28 4 9 9 21 10
26 0 6 8 9 16 9 9 -1 14 5 11 15 -2 9 -9 15 -16 13 -7 -1 -10 2 -6 8 3 5 1 10
-5 10 -6 0 -9 4 -6 8 3 5 -4 21 -15 38 -23 34 -40 70 -68 139 -11 28 -20 41
-21 30 0 -17 -2 -17 -10 -5 -8 12 -10 12 -11 -5 0 -13 -3 -15 -6 -6 -3 8 -8 9
-12 3 -4 -7 -15 -6 -31 3 -22 13 -23 14 -5 15 14 0 16 3 7 8 -7 5 -14 30 -17
57 -3 28 -11 53 -20 57 -19 11 -9 37 13 33 9 -1 11 0 5 2 -15 5 -16 13 -4 32
7 10 12 8 25 -10 l16 -23 0 22 c0 29 17 29 23 0 2 -13 4 9 4 47 1 39 -1 62 -4
53 -2 -10 -10 -18 -17 -18 -7 0 -19 -11 -26 -25 -10 -19 -16 -22 -27 -14 -10
9 -13 4 -13 -25 0 -20 -4 -36 -10 -36 -5 0 -10 18 -10 40 0 22 -4 40 -10 40
-15 0 -50 38 -50 55 0 8 5 15 10 15 6 0 5 6 -2 14 -8 9 -17 11 -22 5 -17 -16
-23 -10 -18 17 4 24 2 26 -21 22 -24 -5 -46 16 -32 30 3 3 5 0 5 -7 0 -7 5 -9
10 -6 18 11 10 26 -12 25 -39 -4 -48 -1 -48 15 0 9 -11 21 -25 27 -14 6 -24
17 -21 24 2 6 -11 26 -30 45 -33 31 -33 33 -14 46 25 18 25 41 2 62 -10 9 -22
24 -25 35 -6 16 -16 18 -67 14 -42 -3 -64 0 -72 9 -12 15 -24 17 -31 6z m9
-27 c0 -14 -5 -21 -9 -17 -4 4 -5 15 -1 24 9 24 12 21 10 -7z m110 -14 c-10
-2 -22 0 -28 6 -6 6 0 7 19 4 21 -5 23 -7 9 -10z m13 -26 c9 -10 9 -16 1 -21
-6 -4 -12 -5 -13 -4 -2 2 -9 12 -16 22 -11 14 -11 17 2 17 8 0 20 -6 26 -14z
m-129 -51 c0 -5 -5 -3 -10 5 -5 8 -10 20 -10 25 0 6 5 3 10 -5 5 -8 10 -19 10
-25z m-66 -205 c-5 -5 -10 7 -10 28 -2 37 -2 37 8 9 6 -16 6 -33 2 -37z m-31
-27 c-7 -2 -21 -2 -30 0 -10 3 -4 5 12 5 17 0 24 -2 18 -5z m282 -13 c3 -5 -1
-10 -10 -10 -9 0 -13 5 -10 10 3 6 8 10 10 10 2 0 7 -4 10 -10z m305 -285 c10
-12 10 -15 -4 -15 -9 0 -16 7 -16 15 0 8 2 15 4 15 2 0 9 -7 16 -15z m120
-106 c0 -6 -4 -8 -9 -4 -5 3 -11 -7 -13 -22 l-3 -28 -6 31 c-4 24 -1 30 13 31
10 1 18 -3 18 -8z m720 -609 c0 -5 -4 -10 -10 -10 -5 0 -10 5 -10 10 0 6 5 10
10 10 6 0 10 -4 10 -10z m100 -200 c0 -5 -4 -10 -10 -10 -5 0 -10 5 -10 10 0
6 5 10 10 10 6 0 10 -4 10 -10z m275 -200 c3 -5 1 -10 -4 -10 -6 0 -11 5 -11
10 0 6 2 10 4 10 3 0 8 -4 11 -10z m135 -25 c8 -19 20 -35 29 -35 8 0 12 -3 8
-6 -19 -19 -87 42 -72 66 11 18 21 11 35 -25z m-50 -67 c0 -7 -5 -20 -10 -28
-8 -12 -10 -9 -10 13 0 15 5 27 10 27 6 0 10 -6 10 -12z m-445 -7 c3 -5 2 -12
-3 -15 -5 -3 -9 1 -9 9 0 17 3 19 12 6z m58 -56 c-3 -9 -8 -14 -10 -11 -3 3
-2 9 2 15 9 16 15 13 8 -4z m114 -104 c0 -11 -5 -18 -9 -15 -4 3 -5 11 -1 19
7 21 12 19 10 -4z m516 -46 c4 -8 2 -17 -3 -20 -6 -4 -10 3 -10 14 0 25 6 27
13 6z m54 -71 c-9 -9 -28 6 -21 18 4 6 10 6 17 -1 6 -6 8 -13 4 -17z m55 -29
c0 -5 -5 -11 -11 -13 -6 -2 -11 4 -11 13 0 9 5 15 11 13 6 -2 11 -8 11 -13z
m68 -75 c0 -5 -4 -10 -10 -10 -5 0 -10 5 -10 10 0 6 5 10 10 10 6 0 10 -4 10
-10z"/>
<path d="M4483 6823 c4 -6 0 -19 -8 -29 -16 -21 -20 -64 -6 -64 14 0 41 59 30
66 -5 3 -7 9 -4 14 3 5 0 12 -6 16 -7 4 -9 3 -6 -3z"/>
<path d="M4400 6712 c0 -4 11 -18 25 -30 l25 -24 10 27 c6 15 8 30 5 33 -3 3
-5 0 -5 -6 0 -7 -10 -8 -30 -2 -16 5 -30 6 -30 2z m47 -34 c-3 -8 -6 -5 -6 6
-1 11 2 17 5 13 3 -3 4 -12 1 -19z"/>
<path d="M4405 6670 c3 -5 8 -10 11 -10 2 0 4 5 4 10 0 6 -5 10 -11 10 -5 0
-7 -4 -4 -10z"/>
<path d="M4080 6629 c0 -5 5 -7 10 -4 6 3 10 8 10 11 0 2 -4 4 -10 4 -5 0 -10
-5 -10 -11z"/>
<path d="M4426 6627 c3 -10 9 -15 12 -12 3 3 0 11 -7 18 -10 9 -11 8 -5 -6z"/>
<path d="M4762 6628 c-16 -16 -15 -33 1 -19 10 8 17 7 27 -2 11 -10 11 -8 0 8
-8 11 -15 21 -15 22 -1 2 -7 -3 -13 -9z"/>
<path d="M4766 6591 c-4 -6 -11 -9 -15 -6 -5 2 -13 -13 -20 -34 -14 -47 -24
-175 -11 -146 5 11 9 14 9 8 1 -18 30 -16 37 2 4 8 10 12 15 9 5 -3 9 2 9 11
0 8 -7 18 -16 22 -8 3 -13 11 -10 18 2 7 -4 15 -15 18 -10 3 -19 13 -18 24 0
16 1 16 10 -2 8 -17 8 -15 4 8 -3 15 -1 27 5 27 5 0 10 -12 11 -27 l1 -28 7
25 c4 14 4 27 0 30 -4 3 -4 12 1 20 8 13 10 13 10 1 0 -8 3 -12 6 -8 3 3 2 13
-4 23 -6 11 -11 13 -16 5z m-16 -157 c0 -8 -4 -12 -10 -9 -5 3 -10 10 -10 16
0 5 5 9 10 9 6 0 10 -7 10 -16z"/>
<path d="M4320 6420 c0 -5 5 -10 11 -10 5 0 7 5 4 10 -3 6 -8 10 -11 10 -2 0
-4 -4 -4 -10z"/>
<path d="M4800 6414 c0 -8 5 -12 10 -9 6 4 8 11 5 16 -9 14 -15 11 -15 -7z"/>
<path d="M4785 6372 c-10 -10 23 -52 42 -52 22 0 42 35 28 48 -7 7 -64 10 -70
4z"/>
<path d="M4711 6344 c0 -11 3 -14 6 -6 3 7 2 16 -1 19 -3 4 -6 -2 -5 -13z"/>
<path d="M4736 6304 c-18 -18 -21 -40 -6 -49 6 -4 8 -11 5 -16 -15 -24 83
-179 108 -171 5 2 7 -4 4 -13 -4 -8 -2 -15 3 -15 5 0 9 11 8 25 -2 25 -18 36
-18 13 -1 -7 -9 5 -20 27 -17 38 -18 41 -1 50 9 6 15 18 13 28 -2 10 4 27 14
38 16 18 16 19 -6 19 -15 0 -20 4 -17 15 8 20 -11 29 -29 14 -8 -6 -18 -8 -22
-4 -4 4 -1 10 6 12 21 8 13 25 -8 18 -21 -7 -28 10 -7 18 8 4 9 6 0 6 -6 1
-19 -6 -27 -15z m14 -35 c0 -6 -4 -7 -10 -4 -5 3 -10 11 -10 16 0 6 5 7 10 4
6 -3 10 -11 10 -16z m38 -27 c15 12 16 11 3 -4 -14 -19 -32 -15 -30 5 0 8 2 8
6 -1 4 -10 8 -10 21 0z m6 -40 c3 -5 -1 -9 -9 -9 -8 0 -12 4 -9 9 3 4 7 8 9 8
2 0 6 -4 9 -8z"/>
<path d="M4820 6139 c0 -5 5 -7 10 -4 6 3 10 8 10 11 0 2 -4 4 -10 4 -5 0 -10
-5 -10 -11z"/>
<path d="M4967 6083 c-10 -10 -8 -23 4 -23 5 0 8 4 5 9 -4 5 0 12 6 14 7 3 8
6 2 6 -6 1 -14 -2 -17 -6z"/>
<path d="M5017 6040 c-9 -11 -24 -20 -32 -20 -8 0 -15 -4 -15 -10 0 -5 -6 -9
-12 -7 -7 1 -12 -4 -10 -10 4 -22 -15 -14 -37 14 -12 14 -23 24 -26 21 -8 -8
35 -47 75 -68 79 -40 225 -62 275 -40 21 9 8 14 -27 11 -10 -1 -18 4 -18 11 0
7 -9 19 -21 26 -12 8 -18 19 -15 28 4 11 1 14 -13 9 -12 -3 -21 0 -25 10 -3 9
-2 13 4 10 6 -3 10 1 10 11 0 14 -7 16 -50 11 -31 -4 -48 -2 -45 3 10 17 0 11
-18 -10z m-42 -60 c-3 -5 -12 -10 -18 -10 -7 0 -6 4 3 10 19 12 23 12 15 0z"/>
<path d="M5650 5978 c69 -71 77 -77 77 -53 0 8 -4 12 -9 9 -5 -4 -12 3 -15 15
-3 12 -9 21 -13 21 -5 0 -13 12 -18 28 -7 17 -11 21 -11 10 -1 -10 -6 -18 -12
-18 -5 0 -7 5 -4 10 3 6 1 10 -6 10 -7 0 -22 8 -33 17 -12 10 8 -12 44 -49z"/>
<path d="M5741 5934 c0 -11 3 -14 6 -6 3 7 2 16 -1 19 -3 4 -6 -2 -5 -13z"/>
<path d="M5620 5786 c-9 -12 -8 -15 8 -13 12 0 18 6 15 14 -6 16 -8 16 -23 -1z"/>
<path d="M5546 5732 c-3 -4 4 -9 15 -9 23 -2 25 3 4 10 -8 4 -16 3 -19 -1z"/>
<path d="M5468 5693 c-21 -8 -35 -19 -32 -24 3 -5 -1 -6 -9 -3 -8 3 -31 -2
-51 -10 -20 -8 -43 -13 -50 -10 -8 3 -17 0 -21 -6 -4 -6 -16 -8 -28 -5 -20 5
-20 5 -4 -5 12 -8 22 -8 30 -2 8 7 18 6 31 -4 10 -7 23 -11 27 -8 18 11 8 -16
-13 -36 -21 -20 -22 -22 -6 -34 11 -8 15 -21 12 -37 -2 -13 -1 -17 2 -9 4 8
12 19 18 23 8 6 7 10 -1 14 -15 5 -18 33 -4 33 26 0 60 -21 66 -41 7 -20 8
-20 17 -6 9 18 38 24 38 8 0 -15 76 -92 83 -85 4 4 2 13 -4 20 -9 11 -5 16 15
24 14 5 26 15 25 22 0 7 -3 8 -5 3 -6 -16 -75 -5 -96 15 -12 11 -16 23 -12 35
6 14 3 16 -14 10 -16 -5 -22 -2 -22 9 0 11 9 16 30 16 20 0 30 5 30 15 0 8 -6
15 -14 15 -22 0 -28 31 -9 46 10 7 14 14 8 14 -5 0 -3 5 5 10 22 15 0 11 -42
-7z m-35 -50 c-7 -2 -21 -2 -30 0 -10 3 -4 5 12 5 17 0 24 -2 18 -5z m-53 -7
c0 -2 -7 -6 -15 -10 -8 -3 -15 -1 -15 4 0 6 7 10 15 10 8 0 15 -2 15 -4z m50
-16 c-8 -5 -19 -10 -25 -10 -5 0 -3 5 5 10 8 5 20 10 25 10 6 0 3 -5 -5 -10z"/>
<path d="M5276 5595 c7 -17 20 -20 28 -6 3 5 -1 12 -10 15 -22 9 -24 8 -18 -9z"/>
<path d="M5060 5588 c0 -9 5 -20 10 -23 13 -8 13 5 0 25 -8 13 -10 13 -10 -2z"/>
<path d="M5170 5570 c0 -5 5 -10 10 -10 6 0 10 5 10 10 0 6 -4 10 -10 10 -5 0
-10 -4 -10 -10z"/>
<path d="M5200 5574 c0 -10 28 -34 39 -34 18 0 12 19 -8 30 -22 11 -31 13 -31
4z"/>
<path d="M5570 5575 c0 -3 9 -14 20 -25 22 -22 39 -8 20 15 -12 14 -40 21 -40
10z"/>
<path d="M5075 5530 c-3 -5 1 -10 9 -10 9 0 16 5 16 10 0 6 -4 10 -9 10 -6 0
-13 -4 -16 -10z"/>
<path d="M5225 5510 c3 -5 17 -10 31 -10 13 0 24 5 24 10 0 6 -14 10 -31 10
-17 0 -28 -4 -24 -10z"/>
<path d="M5390 5505 c0 -8 4 -15 9 -15 5 0 11 7 15 15 3 9 0 15 -9 15 -8 0
-15 -7 -15 -15z"/>
<path d="M5751 5504 c0 -11 3 -14 6 -6 3 7 2 16 -1 19 -3 4 -6 -2 -5 -13z"/>
<path d="M5432 5445 c-11 -25 -32 -34 -32 -15 0 6 -4 10 -10 10 -14 0 -12 -12
6 -35 14 -18 16 -19 25 -3 5 9 16 24 24 32 16 16 20 36 7 36 -5 0 -14 -11 -20
-25z"/>
<path d="M5600 5440 c0 -5 5 -10 11 -10 5 0 7 5 4 10 -3 6 -8 10 -11 10 -2 0
-4 -4 -4 -10z"/>
<path d="M5512 5398 c5 -15 28 -18 29 -3 0 6 -7 12 -17 13 -10 3 -15 -1 -12
-10z"/>
<path d="M5425 5370 c-3 -5 -1 -10 4 -10 6 0 11 5 11 10 0 6 -2 10 -4 10 -3 0
-8 -4 -11 -10z"/>
<path d="M5676 5364 c-11 -28 -6 -54 8 -54 23 0 28 18 9 30 -13 8 -14 13 -5
16 14 6 16 24 3 24 -5 0 -12 -7 -15 -16z"/>
<path d="M5518 5348 c9 -9 15 -9 24 0 9 9 7 12 -12 12 -19 0 -21 -3 -12 -12z"/>
<path d="M5720 5345 c0 -8 5 -15 10 -15 6 0 10 7 10 15 0 8 -4 15 -10 15 -5 0
-10 -7 -10 -15z"/>
<path d="M5575 5330 c-7 -12 2 -30 16 -30 5 0 9 9 9 20 0 21 -15 27 -25 10z"/>
<path d="M5520 5294 c0 -16 23 -44 35 -44 20 0 19 13 -3 33 -19 17 -32 22 -32
11z"/>
<path d="M5601 5276 l-22 -23 51 5 c41 4 50 2 50 -12 0 -9 5 -16 10 -16 6 0
10 -6 10 -14 0 -8 13 -15 33 -18 28 -3 33 -1 30 13 -3 10 -10 16 -17 13 -6 -2
-22 5 -34 16 -23 21 -28 35 -14 43 4 2 1 2 -5 1 -7 -2 -13 2 -13 8 0 6 -6 5
-17 -3 -13 -11 -17 -11 -20 -1 -7 18 -17 15 -42 -12z"/>
<path d="M5750 5291 c0 -10 19 -25 25 -20 1 2 -3 10 -11 17 -8 7 -14 8 -14 3z"/>
<path d="M5827 5248 c-14 -7 -15 -13 -7 -23 11 -13 50 -9 50 5 0 17 -25 28
-43 18z"/>
<path d="M5910 5190 c-10 -6 -11 -10 -2 -10 6 0 12 -4 12 -10 0 -5 -7 -10 -15
-10 -8 0 -15 -4 -15 -10 0 -5 7 -10 15 -10 8 0 15 4 15 9 0 5 9 13 21 16 16 5
18 10 8 21 -13 16 -19 17 -39 4z"/>
<path d="M5840 5180 c0 -5 7 -7 15 -4 8 4 15 8 15 10 0 2 -7 4 -15 4 -8 0 -15
-4 -15 -10z"/>
<path d="M5808 5153 c-24 -6 -23 -33 1 -33 11 0 21 -6 24 -12 3 -10 10 -8 23
5 17 16 17 17 1 17 -9 0 -17 7 -17 15 0 15 -2 16 -32 8z"/>
<path d="M5970 5126 c0 -2 9 -6 20 -9 11 -3 18 -1 14 4 -5 9 -34 13 -34 5z"/>
<path d="M5720 5110 c0 -5 4 -10 9 -10 6 0 13 5 16 10 3 6 -1 10 -9 10 -9 0
-16 -4 -16 -10z"/>
<path d="M5905 5110 c3 -5 8 -10 11 -10 2 0 4 5 4 10 0 6 -5 10 -11 10 -5 0
-7 -4 -4 -10z"/>
<path d="M5753 5085 c-6 -6 -8 -17 -5 -22 5 -7 11 -7 19 2 6 6 8 17 5 22 -5 7
-11 7 -19 -2z"/>
<path d="M6030 5080 c0 -5 5 -10 10 -10 6 0 10 5 10 10 0 6 -4 10 -10 10 -5 0
-10 -4 -10 -10z"/>
<path d="M5808 5043 c6 -2 18 -2 25 0 6 3 1 5 -13 5 -14 0 -19 -2 -12 -5z"/>
<path d="M6078 5024 c2 -13 8 -21 13 -18 14 8 11 31 -4 37 -10 4 -13 -2 -9
-19z"/>
<path d="M5874 5011 c3 -5 15 -7 26 -4 28 7 25 13 -6 13 -14 0 -23 -4 -20 -9z"/>
<path d="M5860 4970 c-13 -8 -12 -10 3 -10 9 0 17 5 17 10 0 12 -1 12 -20 0z"/>
<path d="M6000 4970 c0 -5 5 -10 10 -10 6 0 10 5 10 10 0 6 -4 10 -10 10 -5 0
-10 -4 -10 -10z"/>
<path d="M5870 4926 c0 -8 5 -18 10 -21 6 -3 10 1 10 9 0 8 -4 18 -10 21 -5 3
-10 -1 -10 -9z"/>
<path d="M6200 4930 c0 -5 5 -10 11 -10 5 0 7 5 4 10 -3 6 -8 10 -11 10 -2 0
-4 -4 -4 -10z"/>
<path d="M6092 4921 c-11 -7 -10 -10 3 -15 19 -7 35 0 35 15 0 11 -20 12 -38
0z"/>
<path d="M6250 4890 c0 -5 5 -10 10 -10 6 0 10 5 10 10 0 6 -4 10 -10 10 -5 0
-10 -4 -10 -10z"/>
<path d="M5920 4870 c0 -18 32 -60 45 -60 13 0 3 29 -15 45 -11 10 -17 22 -14
26 3 5 0 9 -5 9 -6 0 -11 -9 -11 -20z"/>
<path d="M6080 4869 c0 -5 5 -7 10 -4 6 3 10 8 10 11 0 2 -4 4 -10 4 -5 0 -10
-5 -10 -11z"/>
<path d="M6115 4859 c-8 -23 -1 -34 14 -24 13 8 15 45 2 45 -5 0 -13 -9 -16
-21z"/>
<path d="M6160 4848 c0 -9 7 -21 16 -29 14 -12 14 -14 -3 -27 -17 -13 -16 -14
7 -7 40 12 42 19 10 50 -22 21 -30 24 -30 13z"/>
<path d="M6345 4824 l-30 -26 33 22 c17 12 32 23 32 26 0 7 -4 5 -35 -22z"/>
<path d="M6236 4789 c3 -5 10 -6 16 -3 6 4 8 2 4 -4 -3 -6 -2 -13 3 -16 5 -3
11 1 15 9 3 8 2 15 -2 16 -4 0 -15 2 -25 4 -9 2 -15 -1 -11 -6z"/>
<path d="M6193 4770 c-13 -5 -23 -16 -23 -25 0 -19 16 -20 24 0 3 8 15 15 27
15 21 0 20 -1 -5 -21 -15 -12 -25 -23 -23 -26 9 -8 59 46 52 56 -7 13 -22 13
-52 1z"/>
<path d="M5985 4730 c-3 -5 -1 -10 4 -10 6 0 11 5 11 10 0 6 -2 10 -4 10 -3 0
-8 -4 -11 -10z"/>
<path d="M6105 4680 c3 -5 8 -10 11 -10 2 0 4 5 4 10 0 6 -5 10 -11 10 -5 0
-7 -4 -4 -10z"/>
</g>
</svg>
